<svg width="216" height="19" viewBox="0 0 216 19" fill="none" xmlns="http://www.w3.org/2000/svg">
<path d="M0.584 0.719999H4.376L11.528 12.348H11.768V0.719999H15.308V18H11.528L4.376 6.372H4.136V18H0.584V0.719999ZM18.4668 0.719999H31.0188V3.42H22.1628V7.788H29.8188V10.5H22.1628V15.3H31.2588V18H18.4668V0.719999ZM32.6818 0.719999H36.2698L38.9098 13.5H39.1497L42.3298 0.719999H45.7378L48.9298 13.5H49.1698L51.7978 0.719999H55.3498V1.08L51.5098 18H47.1058L44.1418 6.204H43.9018L40.9258 18H36.5338L32.6818 1.08V0.719999ZM63.0451 5.46C63.0451 4.548 63.2931 3.712 63.7891 2.952C64.2931 2.192 65.0411 1.584 66.0331 1.128C67.0251 0.663999 68.2571 0.431999 69.7291 0.431999C71.2011 0.431999 72.4491 0.655999 73.4731 1.104C74.4971 1.552 75.2851 2.164 75.8371 2.94C76.3891 3.716 76.6971 4.592 76.7611 5.568V5.928H73.2931C73.2771 4.88 72.9331 4.136 72.2611 3.696C71.5891 3.248 70.7731 3.024 69.8131 3.024C68.8371 3.024 68.0651 3.228 67.4971 3.636C66.9371 4.036 66.6571 4.58 66.6571 5.268C66.6571 5.956 66.9131 6.472 67.4251 6.816C67.9451 7.152 68.6611 7.408 69.5731 7.584L72.0211 8.064C73.6451 8.384 74.9211 8.924 75.8491 9.684C76.7851 10.444 77.2531 11.56 77.2531 13.032C77.2531 14.016 76.9971 14.908 76.4851 15.708C75.9731 16.5 75.1971 17.128 74.1571 17.592C73.1251 18.056 71.8291 18.288 70.2691 18.288C68.7091 18.288 67.3771 18.056 66.2731 17.592C65.1691 17.12 64.3131 16.488 63.7051 15.696C63.0971 14.896 62.7651 14 62.7091 13.008V12.648H66.2131C66.3331 13.696 66.7611 14.468 67.4971 14.964C68.2331 15.452 69.1451 15.696 70.2331 15.696C71.3291 15.696 72.1691 15.48 72.7531 15.048C73.3451 14.608 73.6411 14.02 73.6411 13.284C73.6411 12.556 73.3691 12.024 72.8251 11.688C72.2811 11.352 71.5091 11.088 70.5091 10.896L68.0611 10.416C66.5011 10.112 65.2731 9.544 64.3771 8.712C63.4891 7.88 63.0451 6.796 63.0451 5.46ZM77.9236 0.719999H93.2596V3.456H87.4396V18H83.7436V3.456H77.9236V0.719999ZM91.9633 18V17.64L98.1553 0.719999H102.223L108.415 17.64V18H104.731L103.423 14.148H96.9193L95.6113 18H91.9633ZM97.7713 11.436H102.571L100.291 4.656H100.051L97.7713 11.436ZM110.436 0.719999H114.228L121.38 12.348H121.62V0.719999H125.16V18H121.38L114.228 6.372H113.988V18H110.436V0.719999ZM128.318 0.719999H134.918C136.694 0.719999 138.226 1.076 139.514 1.788C140.802 2.492 141.79 3.492 142.478 4.788C143.174 6.076 143.522 7.6 143.522 9.36C143.522 11.12 143.174 12.648 142.478 13.944C141.79 15.232 140.802 16.232 139.514 16.944C138.226 17.648 136.694 18 134.918 18H128.318V0.719999ZM132.014 3.42V15.3H134.846C136.454 15.3 137.686 14.764 138.542 13.692C139.406 12.612 139.838 11.168 139.838 9.36C139.838 7.552 139.406 6.112 138.542 5.04C137.686 3.96 136.454 3.42 134.846 3.42H132.014ZM143.971 18V17.64L150.163 0.719999H154.231L160.423 17.64V18H156.739L155.431 14.148H148.927L147.619 18H143.971ZM149.779 11.436H154.579L152.299 4.656H152.059L149.779 11.436ZM169.019 11.28H166.139V18H162.443V0.719999H170.483C171.627 0.719999 172.659 0.891999 173.579 1.236C174.507 1.572 175.243 2.096 175.787 2.808C176.331 3.512 176.603 4.42 176.603 5.532C176.603 6.732 176.287 7.672 175.655 8.352C175.031 9.024 174.259 9.472 173.339 9.696V9.936C174.251 10.184 174.899 10.584 175.283 11.136C175.675 11.68 175.923 12.424 176.027 13.368L176.231 15.216C176.295 15.792 176.379 16.26 176.483 16.62C176.587 16.972 176.755 17.312 176.987 17.64V18H173.195C173.019 17.672 172.883 17.324 172.787 16.956C172.699 16.588 172.627 16.08 172.571 15.432L172.463 14.016C172.391 13.064 172.107 12.372 171.611 11.94C171.115 11.5 170.251 11.28 169.019 11.28ZM166.139 3.42V8.568H170.075C170.963 8.568 171.675 8.356 172.211 7.932C172.747 7.5 173.015 6.856 173.015 6C173.015 5.144 172.747 4.5 172.211 4.068C171.675 3.636 170.963 3.42 170.075 3.42H166.139ZM179.131 0.719999H185.731C187.507 0.719999 189.039 1.076 190.327 1.788C191.615 2.492 192.603 3.492 193.291 4.788C193.987 6.076 194.335 7.6 194.335 9.36C194.335 11.12 193.987 12.648 193.291 13.944C192.603 15.232 191.615 16.232 190.327 16.944C189.039 17.648 187.507 18 185.731 18H179.131V0.719999ZM182.827 3.42V15.3H185.659C187.267 15.3 188.499 14.764 189.355 13.692C190.219 12.612 190.651 11.168 190.651 9.36C190.651 7.552 190.219 6.112 189.355 5.04C188.499 3.96 187.267 3.42 185.659 3.42H182.827ZM195.493 14.58H199.225V18H195.493V14.58ZM201.49 5.46C201.49 4.548 201.738 3.712 202.234 2.952C202.738 2.192 203.486 1.584 204.478 1.128C205.47 0.663999 206.702 0.431999 208.174 0.431999C209.646 0.431999 210.894 0.655999 211.918 1.104C212.942 1.552 213.73 2.164 214.282 2.94C214.834 3.716 215.142 4.592 215.206 5.568V5.928H211.738C211.722 4.88 211.378 4.136 210.706 3.696C210.034 3.248 209.218 3.024 208.258 3.024C207.282 3.024 206.51 3.228 205.942 3.636C205.382 4.036 205.102 4.58 205.102 5.268C205.102 5.956 205.358 6.472 205.87 6.816C206.39 7.152 207.106 7.408 208.018 7.584L210.466 8.064C212.09 8.384 213.366 8.924 214.294 9.684C215.23 10.444 215.698 11.56 215.698 13.032C215.698 14.016 215.442 14.908 214.93 15.708C214.418 16.5 213.642 17.128 212.602 17.592C211.57 18.056 210.274 18.288 208.714 18.288C207.154 18.288 205.822 18.056 204.718 17.592C203.614 17.12 202.758 16.488 202.15 15.696C201.542 14.896 201.21 14 201.154 13.008V12.648H204.658C204.778 13.696 205.206 14.468 205.942 14.964C206.678 15.452 207.59 15.696 208.678 15.696C209.774 15.696 210.614 15.48 211.198 15.048C211.79 14.608 212.086 14.02 212.086 13.284C212.086 12.556 211.814 12.024 211.27 11.688C210.726 11.352 209.954 11.088 208.954 10.896L206.506 10.416C204.946 10.112 203.718 9.544 202.822 8.712C201.934 7.88 201.49 6.796 201.49 5.46Z" fill="black"/>
</svg>
